<mxfile host="65bd71144e">
    <diagram id="gWXFxwtl16bqo3VP_17K" name="Page-1">
        <mxGraphModel dx="1104" dy="1011" grid="1" gridSize="10" guides="1" tooltips="1" connect="1" arrows="1" fold="1" page="1" pageScale="1" pageWidth="850" pageHeight="1100" math="0" shadow="0">
            <root>
                <mxCell id="0"/>
                <mxCell id="1" parent="0"/>
                <mxCell id="5" value="" style="rounded=1;whiteSpace=wrap;html=1;strokeColor=#FF0000;shadow=1;dashed=1;" parent="1" vertex="1">
                    <mxGeometry x="161" y="40" width="370" height="630" as="geometry"/>
                </mxCell>
                <mxCell id="14" style="edgeStyle=none;shape=link;html=1;entryX=0;entryY=0.5;entryDx=0;entryDy=0;fontSize=18;fontColor=#FF0000;" parent="1" source="3" target="13" edge="1">
                    <mxGeometry relative="1" as="geometry"/>
                </mxCell>
                <mxCell id="15" style="edgeStyle=none;shape=link;html=1;entryX=0;entryY=0.5;entryDx=0;entryDy=0;fontSize=18;fontColor=#FF0000;" parent="1" source="3" target="10" edge="1">
                    <mxGeometry relative="1" as="geometry"/>
                </mxCell>
                <mxCell id="23" style="edgeStyle=none;shape=link;html=1;entryX=0;entryY=0.5;entryDx=0;entryDy=0;fontSize=14;fontColor=#FF0000;" parent="1" source="3" target="21" edge="1">
                    <mxGeometry relative="1" as="geometry"/>
                </mxCell>
                <mxCell id="3" value="&lt;font style=&quot;font-size: 16px;&quot;&gt;PG&lt;/font&gt;" style="shape=umlActor;verticalLabelPosition=bottom;verticalAlign=top;html=1;outlineConnect=0;" parent="1" vertex="1">
                    <mxGeometry x="30" y="260" width="30" height="60" as="geometry"/>
                </mxCell>
                <mxCell id="12" style="edgeStyle=none;shape=link;html=1;entryX=1;entryY=0.5;entryDx=0;entryDy=0;fontSize=18;fontColor=#FF0000;" parent="1" target="8" edge="1">
                    <mxGeometry relative="1" as="geometry">
                        <mxPoint x="670" y="300" as="sourcePoint"/>
                    </mxGeometry>
                </mxCell>
                <mxCell id="16" style="edgeStyle=none;shape=link;html=1;entryX=1;entryY=0.5;entryDx=0;entryDy=0;fontSize=18;fontColor=#FF0000;" parent="1" source="4" target="9" edge="1">
                    <mxGeometry relative="1" as="geometry"/>
                </mxCell>
                <mxCell id="19" style="edgeStyle=none;shape=link;html=1;entryX=1;entryY=0.5;entryDx=0;entryDy=0;fontSize=14;fontColor=#FF0000;" parent="1" source="4" target="18" edge="1">
                    <mxGeometry relative="1" as="geometry"/>
                </mxCell>
                <mxCell id="20" style="edgeStyle=none;shape=link;html=1;entryX=1;entryY=0.5;entryDx=0;entryDy=0;fontSize=14;fontColor=#FF0000;" parent="1" source="4" target="17" edge="1">
                    <mxGeometry relative="1" as="geometry"/>
                </mxCell>
                <mxCell id="22" style="edgeStyle=none;shape=link;html=1;entryX=1;entryY=0.5;entryDx=0;entryDy=0;fontSize=14;fontColor=#FF0000;" parent="1" source="4" target="21" edge="1">
                    <mxGeometry relative="1" as="geometry"/>
                </mxCell>
                <mxCell id="4" value="&lt;span style=&quot;font-size: 16px;&quot;&gt;SE&lt;/span&gt;" style="shape=umlActor;verticalLabelPosition=bottom;verticalAlign=top;html=1;outlineConnect=0;labelBackgroundColor=none;align=center;" parent="1" vertex="1">
                    <mxGeometry x="680" y="260" width="30" height="60" as="geometry"/>
                </mxCell>
                <mxCell id="6" value="&lt;font color=&quot;#ff0000&quot; style=&quot;font-size: 18px;&quot;&gt;タスク管理システム&lt;/font&gt;" style="text;html=1;strokeColor=none;fillColor=none;align=center;verticalAlign=middle;whiteSpace=wrap;rounded=0;" parent="1" vertex="1">
                    <mxGeometry x="251" y="50" width="190" height="30" as="geometry"/>
                </mxCell>
                <mxCell id="8" value="③タスクを&lt;br&gt;登録・管理" style="rounded=1;whiteSpace=wrap;html=1;shadow=0;strokeColor=#d6b656;fontSize=18;fillColor=#fff2cc;" parent="1" vertex="1">
                    <mxGeometry x="370" y="400" width="131" height="60" as="geometry"/>
                </mxCell>
                <mxCell id="9" value="⑥進捗を管理" style="rounded=1;whiteSpace=wrap;html=1;shadow=0;strokeColor=#d6b656;fontSize=18;fillColor=#fff2cc;" parent="1" vertex="1">
                    <mxGeometry x="370" y="490" width="131" height="60" as="geometry"/>
                </mxCell>
                <mxCell id="10" value="⑤ステータスを&lt;br&gt;変更" style="rounded=1;whiteSpace=wrap;html=1;shadow=0;strokeColor=#d6b656;fontSize=18;fillColor=#fff2cc;" parent="1" vertex="1">
                    <mxGeometry x="191" y="220" width="309" height="60" as="geometry"/>
                </mxCell>
                <mxCell id="13" value="④タスクを&lt;br&gt;確認" style="rounded=1;whiteSpace=wrap;html=1;shadow=0;strokeColor=#d6b656;fontSize=18;fillColor=#fff2cc;" parent="1" vertex="1">
                    <mxGeometry x="191" y="130" width="120" height="60" as="geometry"/>
                </mxCell>
                <mxCell id="17" value="①プロジェクト&lt;br&gt;作成" style="rounded=1;whiteSpace=wrap;html=1;shadow=0;strokeColor=#d6b656;fontSize=18;fillColor=#fff2cc;" parent="1" vertex="1">
                    <mxGeometry x="370" y="130" width="131" height="60" as="geometry"/>
                </mxCell>
                <mxCell id="18" value="&lt;font style=&quot;font-size: 14px;&quot;&gt;②マイルストーン&lt;br&gt;作成&lt;/font&gt;" style="rounded=1;whiteSpace=wrap;html=1;shadow=0;strokeColor=#d6b656;fontSize=18;fillColor=#fff2cc;" parent="1" vertex="1">
                    <mxGeometry x="370" y="310" width="131" height="60" as="geometry"/>
                </mxCell>
                <mxCell id="21" value="⑦タスクに紐づくスレッド上で&lt;br&gt;会話（質問・レビュー）" style="rounded=1;whiteSpace=wrap;html=1;shadow=0;strokeColor=#d6b656;fontSize=18;fillColor=#fff2cc;" parent="1" vertex="1">
                    <mxGeometry x="191" y="580" width="310" height="60" as="geometry"/>
                </mxCell>
                <mxCell id="26" style="edgeStyle=none;html=1;entryX=0.5;entryY=1;entryDx=0;entryDy=0;shape=link;strokeColor=#FF0000;" parent="1" source="25" target="10" edge="1">
                    <mxGeometry relative="1" as="geometry"/>
                </mxCell>
                <mxCell id="25" value="未着手、&lt;br&gt;作業中、&lt;br&gt;レビュー中、&lt;br&gt;レビュー依頼中、&lt;br&gt;完了&lt;br&gt;（権限管理は割愛）" style="rounded=0;whiteSpace=wrap;html=1;fillColor=#FFCCCC;" parent="1" vertex="1">
                    <mxGeometry x="20" y="490" width="120" height="100" as="geometry"/>
                </mxCell>
                <mxCell id="28" style="edgeStyle=none;shape=link;html=1;entryX=1;entryY=0.75;entryDx=0;entryDy=0;strokeColor=#FF0000;" parent="1" source="27" target="9" edge="1">
                    <mxGeometry relative="1" as="geometry"/>
                </mxCell>
                <mxCell id="27" value="マイルストーン内の&lt;br&gt;タスク完了率(%)を&lt;br&gt;個人・全体で見る" style="rounded=0;whiteSpace=wrap;html=1;fillColor=#FFCCCC;" parent="1" vertex="1">
                    <mxGeometry x="620" y="490" width="120" height="60" as="geometry"/>
                </mxCell>
                <mxCell id="31" style="edgeStyle=none;shape=link;html=1;strokeColor=#FF0000;" parent="1" source="29" target="8" edge="1">
                    <mxGeometry relative="1" as="geometry"/>
                </mxCell>
                <mxCell id="29" value="&lt;div style=&quot;text-align: left;&quot;&gt;&lt;span style=&quot;background-color: initial;&quot;&gt;・タスク：PG を 1 : 1 で割り当てる&lt;/span&gt;&lt;/div&gt;&lt;div style=&quot;text-align: left;&quot;&gt;&lt;span style=&quot;background-color: initial;&quot;&gt;・Googleドライブの設計書と紐づける&lt;/span&gt;&lt;/div&gt;&lt;div style=&quot;text-align: left;&quot;&gt;・PGに割り当てられたタスクは、Slackに通知する&lt;/div&gt;" style="rounded=0;whiteSpace=wrap;html=1;fillColor=#FFCCCC;" parent="1" vertex="1">
                    <mxGeometry x="620" y="390" width="280" height="60" as="geometry"/>
                </mxCell>
                <mxCell id="33" style="edgeStyle=none;shape=link;html=1;strokeColor=#FF0000;" parent="1" source="32" target="18" edge="1">
                    <mxGeometry relative="1" as="geometry"/>
                </mxCell>
                <mxCell id="32" value="・最長3か月まで(1日刻みで登録)&lt;br&gt;・マイルストーンは同時並行可能&lt;br&gt;・タスク : マイルストーン = 1 : 1" style="rounded=0;whiteSpace=wrap;html=1;fillColor=#FFCCCC;align=left;" parent="1" vertex="1">
                    <mxGeometry x="620" y="140" width="195" height="60" as="geometry"/>
                </mxCell>
                <mxCell id="34" value="・同時に3個まで掛け持ちOK&lt;br&gt;・新人は1個に集中&lt;br&gt;　⇒ 新人の定義が決まっていないので、&lt;br&gt;　　 初期リリースでは運用でカバー" style="rounded=0;whiteSpace=wrap;html=1;fillColor=#FFCCCC;align=left;" vertex="1" parent="1">
                    <mxGeometry x="620" y="50" width="230" height="70" as="geometry"/>
                </mxCell>
                <mxCell id="35" style="edgeStyle=none;shape=link;html=1;strokeColor=#FF0000;exitX=0;exitY=0.75;exitDx=0;exitDy=0;entryX=1;entryY=0.25;entryDx=0;entryDy=0;" edge="1" parent="1" source="34" target="17">
                    <mxGeometry relative="1" as="geometry">
                        <mxPoint x="630" y="207.6595744680851" as="sourcePoint"/>
                        <mxPoint x="511" y="241.41843971631204" as="targetPoint"/>
                    </mxGeometry>
                </mxCell>
                <mxCell id="36" value="&lt;div style=&quot;&quot;&gt;・タスク : スレッド = 1 : N (上限は5個)&lt;/div&gt;&lt;div style=&quot;&quot;&gt;　⇒ 多すぎる場合、タスク内容に問題があると&lt;/div&gt;&lt;div style=&quot;&quot;&gt;　　 判断して、タスクの見直しを行う&lt;/div&gt;" style="rounded=0;whiteSpace=wrap;html=1;fillColor=#FFCCCC;align=left;" vertex="1" parent="1">
                    <mxGeometry x="320" y="710" width="280" height="60" as="geometry"/>
                </mxCell>
                <mxCell id="37" style="edgeStyle=none;shape=link;html=1;strokeColor=#FF0000;exitX=0.75;exitY=1;exitDx=0;exitDy=0;entryX=0.5;entryY=0;entryDx=0;entryDy=0;" edge="1" parent="1" source="21" target="36">
                    <mxGeometry relative="1" as="geometry">
                        <mxPoint x="589" y="610.0022905027934" as="sourcePoint"/>
                        <mxPoint x="650" y="630" as="targetPoint"/>
                    </mxGeometry>
                </mxCell>
                <mxCell id="40" style="edgeStyle=none;shape=link;html=1;entryX=1;entryY=0.5;entryDx=0;entryDy=0;fontSize=18;fontColor=#FF0000;" edge="1" parent="1" target="10">
                    <mxGeometry relative="1" as="geometry">
                        <mxPoint x="670" y="290" as="sourcePoint"/>
                        <mxPoint x="510.9999999999998" y="440" as="targetPoint"/>
                    </mxGeometry>
                </mxCell>
            </root>
        </mxGraphModel>
    </diagram>
</mxfile>